<?xml version="1.0" standalone="no"?>
<!DOCTYPE svg PUBLIC "-//W3C//DTD SVG 20010904//EN"
 "http://www.w3.org/TR/2001/REC-SVG-20010904/DTD/svg10.dtd">
<svg version="1.0" xmlns="http://www.w3.org/2000/svg"
 width="500.000000pt" height="500.000000pt" viewBox="0 0 500.000000 500.000000"
 preserveAspectRatio="xMidYMid meet">
<metadata>
Created by potrace 1.11, written by Peter Selinger 2001-2013
</metadata>
<g transform="translate(0.000000,500.000000) scale(0.100000,-0.100000)"
fill="#000000" stroke="none">
<path d="M1849 4936 c-2 -2 -38 -6 -79 -9 -107 -8 -166 -18 -212 -36 -16 -6
-28 -9 -28 -6 0 8 -105 -32 -170 -65 -224 -113 -385 -336 -434 -601 -2 -13 -5
-24 -6 -24 -1 0 -3 -18 -5 -40 -2 -22 -7 -71 -11 -110 -3 -38 -6 -84 -6 -101
l0 -32 -57 28 c-94 46 -115 46 -252 0 -67 -22 -136 -42 -153 -45 -17 -3 -44
-8 -61 -12 -16 -4 -32 -7 -35 -8 -59 -11 -169 -119 -190 -187 -9 -27 -14 -101
-16 -198 -2 -205 12 -254 101 -343 35 -34 119 -75 167 -80 73 -7 71 -2 72
-222 1 -237 8 -226 -130 -223 -49 1 -94 -1 -100 -5 -10 -6 -19 -65 -30 -187
-2 -19 -6 -60 -10 -90 -3 -30 -8 -77 -10 -105 -2 -27 -6 -61 -9 -75 -4 -14 -8
-54 -10 -90 -3 -36 -7 -81 -11 -100 -3 -19 -8 -62 -10 -95 -1 -33 -6 -85 -9
-115 -6 -52 -11 -102 -17 -160 l-3 -25 420 0 420 0 -2 100 c-1 55 -4 147 -7
205 -14 263 -17 322 -20 428 -3 69 0 110 5 105 5 -5 11 -18 13 -29 23 -110
106 -246 215 -354 l55 -54 1 -215 0 -215 263 -1 c145 0 269 3 275 7 7 4 12 47
12 120 l0 113 60 -4 c93 -7 1159 -6 1258 0 48 4 88 3 88 0 1 -3 2 -55 3 -114
1 -69 5 -110 13 -115 19 -12 524 -7 531 5 4 6 6 104 6 217 l-2 207 62 62 c91
90 164 207 195 312 7 22 15 47 18 55 4 8 8 29 10 45 3 17 9 34 13 39 6 6 7 0
4 -15 -6 -26 -11 -110 -19 -314 -11 -258 -12 -283 -19 -294 -4 -6 -2 -11 4
-11 6 0 8 -4 5 -10 -3 -5 -8 -45 -11 -87 -2 -43 -6 -99 -8 -125 -2 -27 2 -52
8 -57 6 -5 184 -9 421 -8 l410 2 -2 45 c-1 25 -4 74 -8 110 -3 36 -8 85 -10
110 -3 25 -7 68 -10 95 -3 28 -7 82 -9 121 -2 39 -6 76 -9 81 -4 6 -9 41 -12
79 -3 38 -8 85 -11 104 -2 19 -6 62 -9 95 -3 33 -8 76 -11 95 -3 19 -6 49 -7
67 -1 17 -5 35 -10 39 -4 4 -51 7 -104 6 -72 -1 -101 2 -113 13 -13 12 -16 44
-15 209 0 116 5 200 10 205 6 6 28 13 50 17 22 3 43 8 47 11 5 2 16 6 27 8 61
12 145 93 180 175 21 48 24 72 25 195 2 193 -16 263 -87 342 -29 31 -145 96
-164 91 -16 -4 -90 14 -189 47 -56 19 -117 36 -136 39 -38 4 -129 -24 -168
-53 l-25 -18 0 40 c2 148 -31 330 -82 455 -73 183 -215 341 -385 428 -63 32
-211 80 -273 88 -27 4 -63 10 -80 13 -33 6 -1379 15 -1386 9z m1246 -301 c55
-3 107 -7 115 -7 27 -1 114 -20 158 -34 78 -26 145 -66 204 -122 101 -96 150
-207 176 -397 7 -50 7 -1387 0 -1435 -7 -52 -28 -153 -35 -170 -4 -8 -7 -17
-7 -20 -4 -21 -35 -82 -59 -118 -102 -152 -270 -234 -512 -249 -136 -9 -1185
-10 -1315 -1 -203 14 -347 69 -448 170 -95 94 -145 210 -168 388 -10 75 -9
1382 0 1450 4 25 7 53 7 62 0 10 5 20 10 23 5 4 7 10 4 15 -7 11 38 132 68
183 56 94 168 181 282 218 90 30 141 38 289 44 60 3 110 6 112 7 5 6 1026 0
1119 -7z m1034 -1625 c29 -13 54 -32 57 -44 13 -40 10 -307 -4 -327 -9 -13
-26 -17 -72 -18 l-59 0 4 187 c3 103 5 203 5 222 1 26 3 31 10 20 5 -9 31 -27
59 -40z m-3233 -152 c2 -101 5 -194 6 -208 3 -24 0 -25 -52 -27 -85 -4 -84 -7
-85 169 0 84 2 163 7 175 4 12 26 30 51 41 25 11 48 25 52 32 4 6 9 9 12 6 3
-3 7 -88 9 -188z m42 -423 c-3 -3 -9 2 -12 12 -6 14 -5 15 5 6 7 -7 10 -15 7
-18z"/>
<path d="M3257 4386 c-61 -22 -87 -48 -118 -114 -56 -119 34 -259 170 -266
132 -7 233 117 199 243 -29 107 -151 174 -251 137z"/>
<path d="M2427 4174 c-1 -1 -24 -4 -52 -8 -179 -21 -324 -89 -457 -214 -169
-160 -258 -365 -258 -597 0 -345 230 -663 555 -770 101 -33 143 -39 280 -38
215 0 408 82 561 239 73 75 118 140 176 257 5 10 20 59 33 109 21 80 24 108
21 222 -5 152 -5 157 -39 255 -110 315 -413 535 -750 545 -37 1 -69 1 -70 0z
m183 -315 c25 -7 47 -13 50 -14 27 -9 69 -30 104 -55 204 -140 282 -392 195
-627 -51 -134 -207 -274 -348 -310 -39 -10 -245 -12 -256 -3 -5 5 -12 8 -15 8
-61 1 -203 91 -265 168 -187 234 -150 558 84 743 71 55 98 69 184 91 81 20
195 20 267 -1z"/>
<path d="M3995 1487 c-8 -4 -12 -16 -9 -30 3 -12 6 -29 6 -37 1 -42 43 -142
75 -179 30 -35 120 -94 138 -90 3 1 21 -2 40 -5 44 -9 144 9 215 38 113 46
215 147 248 245 22 64 45 60 -344 63 -195 2 -362 0 -369 -5z"/>
<path d="M238 1484 c-6 -5 29 -111 43 -128 5 -6 21 -26 35 -44 31 -39 145
-122 167 -122 9 0 18 -4 21 -9 5 -7 30 -15 86 -27 131 -28 254 15 321 113 17
24 27 43 23 43 -3 0 -1 7 6 15 7 8 9 15 6 15 -4 0 -2 9 4 20 6 10 13 44 16 75
l6 55 -364 0 c-201 0 -367 -2 -370 -6z"/>
<path d="M1188 1432 c-11 -13 -20 -52 -37 -167 -5 -33 -12 -67 -15 -75 -3 -8
-7 -31 -10 -50 -2 -19 -6 -46 -9 -60 -4 -14 -9 -41 -12 -60 -10 -64 -25 -145
-34 -190 -5 -25 -7 -48 -5 -52 2 -4 0 -9 -6 -13 -14 -9 -12 -55 3 -55 15 -1
959 -1 970 0 5 0 6 19 2 43 -3 23 -7 83 -10 132 -2 50 -6 113 -10 140 -3 28
-8 93 -11 145 -8 189 -15 255 -25 265 -6 6 -147 10 -395 10 -308 0 -388 -2
-396 -13z"/>
<path d="M2977 1438 c-6 -3 -11 -30 -13 -60 -2 -51 -8 -139 -20 -313 -7 -99
-12 -172 -17 -251 -3 -34 -7 -66 -10 -71 -3 -5 -2 -15 2 -22 7 -10 107 -13
496 -13 268 1 490 3 493 7 3 3 0 20 -6 38 -7 19 -12 49 -12 68 0 19 -4 39 -9
45 -5 5 -12 29 -15 54 -5 44 -12 90 -22 140 -3 14 -9 50 -14 80 -4 30 -11 62
-14 70 -3 8 -7 31 -10 50 -9 82 -29 171 -40 177 -14 10 -774 11 -789 1z"/>
<path d="M906 538 l-91 -67 -1 -205 c-1 -114 2 -207 5 -207 3 -1 291 -2 640
-3 519 -1 634 1 639 12 7 19 8 499 1 520 -6 16 -46 17 -554 17 l-548 0 -91
-67z"/>
<path d="M2862 595 c-8 -12 -11 -534 -3 -536 30 -7 1274 -2 1278 5 11 16 8
395 -2 408 -6 7 -26 24 -45 38 -39 27 -41 28 -89 67 l-35 28 -549 0 c-359 0
-551 -3 -555 -10z"/>
</g>
</svg>
